<mxfile host="app.diagrams.net" modified="2024-10-19T20:32:20.367Z" agent="Mozilla/5.0 (Windows NT 10.0; Win64; x64) AppleWebKit/537.36 (KHTML, like Gecko) Chrome/129.0.0.0 Safari/537.36" version="23.1.5" etag="cn7YbUj_yoDdpWywmh_Z" type="github">
  <diagram name="Page-1" id="-Er_Uny2t0bc3hJGhM1T">
    <mxGraphModel>
      <root>
        <mxCell id="0" />
        <mxCell id="1" parent="0" />
      </root>
    </mxGraphModel>
  </diagram>
</mxfile>
